<?xml version="1.0" standalone="no"?>
<!DOCTYPE svg PUBLIC "-//W3C//DTD SVG 20010904//EN"
 "http://www.w3.org/TR/2001/REC-SVG-20010904/DTD/svg10.dtd">
<svg version="1.0" xmlns="http://www.w3.org/2000/svg"
 width="43pt" height="43" viewBox="0 0 43.000000 43.000000"
 preserveAspectRatio="xMidYMid meet">

<g transform="translate(0.000000,43.000000) scale(0.100000,-0.100000)"
fill="#000000" stroke="none">
<path d="M50 2535 c0 -294 2 -535 4 -535 2 0 17 37 32 83 81 245 238 482 429
649 141 124 390 273 528 317 20 7 37 14 37 17 0 2 -232 4 -515 4 l-515 0 0
-535z"/>
<path d="M2210 3066 c0 -2 28 -13 63 -26 97 -35 253 -116 357 -185 154 -103
350 -286 350 -328 0 -7 -33 -45 -73 -83 -39 -38 -130 -124 -200 -191 -70 -68
-132 -123 -138 -123 -5 0 -47 35 -93 78 -183 173 -369 274 -616 334 -36 8
-117 13 -235 12 -155 0 -191 -4 -260 -23 -294 -83 -518 -265 -645 -526 -87
-178 -120 -363 -101 -565 26 -277 121 -484 298 -650 262 -248 639 -335 1028
-239 163 40 347 150 535 320 42 38 82 69 89 69 7 0 70 -60 139 -132 70 -73
157 -165 194 -204 38 -39 68 -77 68 -85 0 -25 -245 -237 -379 -328 -33 -23
-93 -59 -133 -81 l-73 -40 343 0 342 0 0 1500 0 1500 -430 0 c-236 0 -430 -2
-430 -4z m-562 -990 c30 -179 117 -311 267 -401 64 -38 179 -78 258 -90 64
-10 62 -36 -3 -48 -161 -28 -242 -63 -326 -140 -99 -90 -160 -202 -190 -352
-8 -38 -17 -76 -20 -84 -10 -29 -26 8 -45 100 -10 52 -33 122 -50 157 -38 78
-128 176 -203 221 -60 36 -211 91 -251 91 -13 0 -36 5 -52 11 -26 10 -27 11
-10 24 10 7 43 16 73 20 67 8 148 35 214 71 67 36 171 146 208 219 31 63 72
184 72 215 0 31 19 72 32 68 7 -3 19 -39 26 -82z"/>
<path d="M50 570 l0 -500 418 0 417 0 -89 50 c-129 72 -227 148 -346 269 -167
168 -288 365 -360 584 -17 53 -34 97 -36 97 -2 0 -4 -225 -4 -50z"/>
</g>
</svg>
